# xmcd
#
# Track frame offsets:
#	150
#	13215
#	28195
#	42335
#	56483
#	70236
#	83865
#	99947
#	110876
#	129962
#	148218
#	166472
#	184073
#	202949
#	221410
#	240329
#	260914
#	287104
#	303934
#	319856
#	337691
#
# Disc length: 4745 seconds
#
# Revision: 1
# Processed by: cddbd v1.5.1PL0 Copyright (c) Steve Scherf et al.
# Submitted via: audiograbber 1.83.01
#
DISCID=33128715
DTITLE=Meade Lux Lewis - Hey! Piano Man - CD 2
DYEAR=1900
DGENRE=Boogie Woogie
TTITLE0=Honky Tonk Train Blues
TTITLE1=Yancey Special
TTITLE2=Celeste Blues
TTITLE3=I'm in the Mood for Love
TTITLE4=Mr. Freddie Blues
TTITLE5=Honky Tonk Train Blues
TTITLE6=Whistlin' Blues
TTITLE7=Bear Cat Crawl
TTITLE8=The Blues (part 1)
TTITLE9=The Blues (part 2)
TTITLE10=The Blues (part 3)
TTITLE11=The Blues (part 4)
TTITLE12=The Blues (part 5)
TTITLE13=Melancholy Blues
TTITLE14=Solitude Blues
TTITLE15=Twos and Fews
TTITLE16=Nagasaki
TTITLE17=Untitled Original
TTITLE18=Messin' Around
TTITLE19=Deep Fives
TTITLE20=Blues de 'Lux'
EXTD=
EXTT0=
EXTT1=
EXTT2=
EXTT3=
EXTT4=
EXTT5=
EXTT6=
EXTT7=
EXTT8=
EXTT9=
EXTT10=
EXTT11=
EXTT12=
EXTT13=
EXTT14=
EXTT15=
EXTT16=
EXTT17=
EXTT18=
EXTT19=
EXTT20=
PLAYORDER=
